HIERARCHY
ROOT Hips
{
 OFFSET 0.000000 0.000000 0.000000
 CHANNELS 6 Xposition Yposition Zposition Yrotation Xrotation Zrotation
 JOINT Chest
 {
  OFFSET 0.000000 9.585900 0.002600
  CHANNELS 3 Yrotation Xrotation Zrotation
  JOINT Chest2
  {
   OFFSET 0.000000 9.601200 -0.005300
   CHANNELS 3 Yrotation Xrotation Zrotation
   JOINT Chest3
   {
    OFFSET 0.000000 9.561800 0.000000
    CHANNELS 3 Yrotation Xrotation Zrotation
    JOINT Chest4
    {
     OFFSET 0.000000 9.552100 0.000000
     CHANNELS 3 Yrotation Xrotation Zrotation
     JOINT Neck
     {
      OFFSET 0.000000 14.453000 0.000000
      CHANNELS 3 Yrotation Xrotation Zrotation
      JOINT Head
      {
       OFFSET 0.000000 8.936500 -0.011300
       CHANNELS 3 Yrotation Xrotation Zrotation
       End Site
       {
        OFFSET 0.000000 17.073600 -0.006000
       }
      }
     }
     JOINT RightCollar
     {
      OFFSET -2.921100 9.558500 0.000000
      CHANNELS 3 Yrotation Xrotation Zrotation
      JOINT RightShoulder
      {
       OFFSET -13.519700 0.000000 0.000000
       CHANNELS 3 Yrotation Xrotation Zrotation
       JOINT RightElbow
       {
        OFFSET 0.000000 -29.696600 0.000000
        CHANNELS 3 Yrotation Xrotation Zrotation
        JOINT RightWrist
        {
         OFFSET 0.000000 -24.004700 0.000000
         CHANNELS 3 Yrotation Xrotation Zrotation
         End Site
         {
          OFFSET 0.000000 -17.728500 0.000000
         }
        }
       }
      }
     }
     JOINT LeftCollar
     {
      OFFSET 2.921100 9.558500 0.000000
      CHANNELS 3 Yrotation Xrotation Zrotation
      JOINT LeftShoulder
      {
       OFFSET 13.519700 0.000000 0.000000
       CHANNELS 3 Yrotation Xrotation Zrotation
       JOINT LeftElbow
       {
        OFFSET 0.000000 -29.696600 0.000000
        CHANNELS 3 Yrotation Xrotation Zrotation
        JOINT LeftWrist
        {
         OFFSET 0.000000 -24.004700 0.000000
         CHANNELS 3 Yrotation Xrotation Zrotation
         End Site
         {
          OFFSET 0.000000 -17.728500 0.000000
         }
        }
       }
      }
     }
    }
   }
  }
 }
 JOINT RightHip
 {
  OFFSET -7.771700 -0.012900 -0.001300
  CHANNELS 3 Yrotation Xrotation Zrotation
  JOINT RightKnee
  {
   OFFSET 0.000000 -40.869800 0.001200
   CHANNELS 3 Yrotation Xrotation Zrotation
   JOINT RightAnkle
   {
    OFFSET 0.000000 -39.717900 0.002100
    CHANNELS 3 Yrotation Xrotation Zrotation
    JOINT RightToe
    {
     OFFSET 0.000000 -4.965400 11.033500
     CHANNELS 3 Yrotation Xrotation Zrotation
     End Site
     {
      OFFSET 0.000000 -1.423100 5.872300
     }
    }
   }
  }
 }
 JOINT LeftHip
 {
  OFFSET 7.771700 -0.012900 -0.001300
  CHANNELS 3 Yrotation Xrotation Zrotation
  JOINT LeftKnee
  {
   OFFSET 0.000000 -40.869800 0.001200
   CHANNELS 3 Yrotation Xrotation Zrotation
   JOINT LeftAnkle
   {
    OFFSET 0.000000 -39.717900 0.002100
    CHANNELS 3 Yrotation Xrotation Zrotation
    JOINT LeftToe
    {
     OFFSET 0.000000 -4.965400 11.033500
     CHANNELS 3 Yrotation Xrotation Zrotation
     End Site
     {
      OFFSET 0.000000 -1.423100 5.872300
     }
    }
   }
  }
 }
}
MOTION
Frames: 11
Frame Time: 0.008333
-23.292409 55.190025 9.338924 -176.174061 -19.360261 -1.777658 -0.284947 17.932625 -0.293019 -0.025090 1.977987 -0.010402 -0.041997 3.281993 -0.017619 -0.215538 15.677764 -0.101807 1.382936 10.432489 7.056352 -0.167982 -14.653532 7.426158 2.358237 0.609532 1.049088 5.261078 -8.189778 -9.887320 -28.532625 -75.351395 57.420836 -9.069585 -24.661983 -4.031837 -5.756115 -1.984570 1.090931 0.572468 -14.049383 9.951220 29.742200 -62.358075 -69.313400 1.204086 -28.317762 8.374541 -1.789741 -55.657666 11.432163 -97.137681 87.519164 -102.834076 -11.226548 -23.232279 14.197623 0.018310 -0.206102 0.021077 11.011324 -51.889374 -6.754941 109.472957 77.520600 106.336037 -9.224207 -24.384325 3.387122 0.038064 0.156007 0.008997
-23.295507 55.189076 9.336432 -176.172938 -19.350283 -1.769662 -0.291940 17.916558 -0.285005 -0.025238 1.977895 -0.019478 -0.042633 3.278069 -0.016763 -0.217291 15.678541 -0.105172 1.382274 10.429164 7.058081 -0.174789 -14.674149 7.441698 2.357815 0.604779 1.056539 5.258755 -8.192596 -9.876216 -28.498280 -75.328088 57.391778 -9.079377 -24.670359 -4.022319 -5.769072 -1.987136 1.116320 0.568314 -14.043639 9.949125 29.749015 -62.337236 -69.308587 1.186157 -28.311993 8.369459 -1.775326 -55.676048 11.426551 -97.170156 87.497147 -102.852289 -11.277165 -23.168735 14.197005 0.034974 -0.213456 0.026299 11.013095 -51.898412 -6.763045 109.495534 77.522940 106.354505 -9.232461 -24.386552 3.388026 0.042758 0.156712 0.012290
-23.297000 55.188691 9.332321 -176.175953 -19.349815 -1.767301 -0.289910 17.914827 -0.276690 -0.025965 1.973658 -0.019409 -0.042715 3.274825 -0.015831 -0.216979 15.671754 -0.100364 1.376814 10.432841 7.052179 -0.182588 -14.693896 7.460402 2.353442 0.610207 1.052313 5.257125 -8.192295 -9.867822 -28.491426 -75.309908 57.393528 -9.083257 -24.680408 -4.021547 -5.787283 -1.982438 1.135295 0.568086 -14.034673 9.945019 29.715699 -62.324904 -69.268547 1.193627 -28.337156 8.365017 -1.761567 -55.676607 11.425170 -97.085025 87.483088 -102.758447 -11.296119 -23.140656 14.198184 0.026610 -0.205745 0.024088 11.014297 -51.898682 -6.759075 109.541247 77.526641 106.399018 -9.236452 -24.393666 3.388279 0.047009 0.156548 0.016047
-23.299029 55.187920 9.329287 -176.174190 -19.343098 -1.759912 -0.294872 17.907816 -0.275405 -0.025220 1.971266 -0.018479 -0.042982 3.267172 -0.007088 -0.221671 15.668166 -0.104972 1.372565 10.423996 7.057027 -0.184690 -14.686505 7.454942 2.351192 0.621134 1.041060 5.256769 -8.191727 -9.864886 -28.532072 -75.293546 57.444087 -9.084278 -24.692323 -4.027056 -5.800798 -1.979420 1.150290 0.564433 -14.024804 9.945710 29.675505 -62.312518 -69.228704 1.198869 -28.365466 8.366195 -1.747375 -55.683179 11.413111 -97.050440 87.475235 -102.719965 -11.304425 -23.120492 14.198808 0.021801 -0.195761 0.020967 11.019578 -51.903289 -6.769075 109.553744 77.528202 106.407956 -9.239599 -24.396550 3.389837 0.054487 0.157168 0.017943
-23.300403 55.186645 9.327778 -176.179797 -19.327889 -1.750911 -0.292496 17.892345 -0.275691 -0.026115 1.969027 -0.015668 -0.042692 3.268117 -0.014505 -0.216660 15.657860 -0.093844 1.366817 10.397912 7.088383 -0.184725 -14.663787 7.426671 2.335737 0.624623 1.039231 5.266076 -8.191150 -9.850035 -28.463933 -75.289215 57.380755 -9.102529 -24.703236 -4.024066 -5.819901 -1.975700 1.167151 0.573905 -14.017986 9.931493 29.604369 -62.314264 -69.168440 1.166958 -28.366570 8.366836 -1.728472 -55.698860 11.397749 -97.027092 87.475592 -102.697600 -11.273338 -23.108287 14.193456 0.023086 -0.185263 0.016494 11.030759 -51.916807 -6.779134 109.565131 77.529918 106.413967 -9.232102 -24.400605 3.387097 0.053205 0.159067 0.020218
-23.299984 55.185890 9.324851 -176.180830 -19.322539 -1.752889 -0.290809 17.886995 -0.270807 -0.024925 1.965996 -0.004385 -0.044017 3.266483 -0.017687 -0.217623 15.651577 -0.091693 1.362637 10.392955 7.099460 -0.193553 -14.672469 7.439422 2.323651 0.620676 1.037920 5.265853 -8.184615 -9.834340 -28.388688 -75.284621 57.318916 -9.122791 -24.708707 -4.016762 -5.834189 -1.972262 1.179607 0.578886 -14.012792 9.922975 29.542847 -62.312052 -69.115221 1.159077 -28.386206 8.370439 -1.716492 -55.703820 11.388731 -97.009713 87.476400 -102.681343 -11.200082 -23.099397 14.182322 0.032104 -0.180616 0.012565 11.023160 -51.922771 -6.770555 109.589450 77.530683 106.433843 -9.227012 -24.407761 3.386582 0.050737 0.161535 0.019701
-23.300110 55.185209 9.321701 -176.183258 -19.320795 -1.750306 -0.287323 17.884084 -0.265349 -0.026086 1.965862 -0.007431 -0.043098 3.259943 -0.006677 -0.220922 15.650004 -0.091785 1.357487 10.387998 7.108717 -0.199191 -14.680687 7.451410 2.319026 0.626978 1.026748 5.245333 -8.200889 -9.799052 -28.321214 -75.250029 57.297222 -9.098418 -24.712984 -4.034000 -5.847819 -1.970768 1.192899 0.559986 -13.990153 9.938976 29.570495 -62.302489 -69.123203 1.147526 -28.401604 8.369934 -1.708473 -55.703636 11.381625 -96.976174 87.476675 -102.649233 -11.155745 -23.094388 14.173666 0.055113 -0.168383 0.012112 11.019355 -51.924325 -6.765388 109.634379 77.537693 106.470462 -9.215594 -24.416080 3.389196 0.046322 0.163198 0.018571
-23.300148 55.184257 9.319286 -176.182423 -19.316340 -1.749043 -0.288406 17.877857 -0.254961 -0.026822 1.964477 -0.012522 -0.043386 3.262065 -0.011505 -0.219164 15.643624 -0.071387 1.350138 10.385673 7.104701 -0.205070 -14.693441 7.469352 2.315791 0.634226 1.006141 5.243598 -8.202333 -9.794924 -28.368400 -75.223164 57.362281 -9.074743 -24.716067 -4.046898 -5.861788 -1.967686 1.201110 0.560779 -13.971891 9.937317 29.564679 -62.304378 -69.111324 1.153250 -28.425475 8.369967 -1.704991 -55.706704 11.377319 -96.941254 87.478598 -102.618505 -11.111419 -23.088062 14.166539 0.035664 -0.171740 0.009012 11.017125 -51.928539 -6.765369 109.643282 77.539032 106.475833 -9.208021 -24.419243 3.388882 0.046556 0.164422 0.017938
-23.300633 55.183344 9.316683 -176.182729 -19.315324 -1.745720 -0.288999 17.877071 -0.256325 -0.030604 1.967034 0.000617 -0.040446 3.259018 -0.018141 -0.221966 15.643338 -0.077569 1.348897 10.375469 7.127629 -0.224129 -14.731817 7.529496 2.314711 0.633753 1.007497 5.245094 -8.208926 -9.783335 -28.353510 -75.199139 57.360988 -9.056155 -24.721187 -4.058173 -5.871132 -1.958032 1.258321 0.579459 -13.973578 9.886586 29.445657 -62.306774 -69.004513 1.157965 -28.460465 8.374098 -1.702523 -55.711554 11.380804 -96.971284 87.471002 -102.646977 -11.131154 -23.051880 14.161872 0.056439 -0.190296 0.018688 11.017585 -51.928789 -6.768034 109.661477 77.539612 106.489844 -9.199419 -24.423762 3.389886 0.045484 0.164885 0.016769
-23.302237 55.182471 9.313843 -176.189212 -19.318347 -1.735382 -0.290935 17.881715 -0.259661 -0.027105 1.966440 -0.003049 -0.044547 3.262938 -0.008466 -0.224404 15.641047 -0.079802 1.351349 10.361766 7.147725 -0.226896 -14.743854 7.541118 2.315979 0.627995 0.997981 5.245602 -8.209698 -9.769868 -28.314631 -75.190199 57.331030 -9.071615 -24.726768 -4.061497 -5.870558 -1.957834 1.261278 0.580972 -13.970370 9.881547 29.437424 -62.305551 -68.996119 1.145066 -28.444169 8.373692 -1.692347 -55.709639 11.373353 -97.024256 87.469871 -102.712478 -11.105422 -23.032945 14.154474 0.044249 -0.171918 0.021562 11.015606 -51.922563 -6.770047 109.674106 77.536814 106.490769 -9.198242 -24.428624 3.397717 0.042417 0.166263 0.011060
-23.303438 55.181291 9.311806 -176.190712 -19.317835 -1.730784 -0.291991 17.883515 -0.258648 -0.026654 1.965580 -0.005710 -0.044399 3.262364 -0.009836 -0.223053 15.645785 -0.072039 1.349078 10.352687 7.151844 -0.235348 -14.761052 7.573736 2.312311 0.624483 0.987352 5.239408 -8.202058 -9.743427 -28.271375 -75.197601 57.302164 -9.086929 -24.731728 -4.060211 -5.876561 -1.959767 1.268284 0.574123 -13.941460 9.896301 29.496713 -62.314566 -69.048588 1.136125 -28.434754 8.375911 -1.688219 -55.708788 11.364068 -96.971914 87.466242 -102.666039 -11.078490 -23.022415 14.148218 0.046347 -0.169094 0.024094 11.014872 -51.921916 -6.772582 109.677903 77.535233 106.489923 -9.198555 -24.432152 3.399226 0.036962 0.169667 0.011042
